<?xml version="1.0" encoding="utf-8"?>
<!-- Generator: Adobe Illustrator 21.0.2, SVG Export Plug-In . SVG Version: 6.00 Build 0)  -->
<svg version="1.1" id="Layer_1" xmlns="http://www.w3.org/2000/svg" xmlns:xlink="http://www.w3.org/1999/xlink" x="0px" y="0px"
	 viewBox="0 0 300 72.5" style="enable-background:new 0 0 300 72.5;" xml:space="preserve">
<style type="text/css">
	.st0{fill:#EE3658;}
	.st1{fill:#6E6F71;}
	.st2{fill:#A7A9AC;}
</style>
<g>
	<path class="st0" d="M102.9,50.2c-0.6,3.5-2,6.2-4.2,8.2c-2.2,2-5.2,2.9-8.8,2.9c-2.3,0-4.3-0.4-6-1.2c-1.7-0.7-3.3-1.9-4.5-3.3
		c-1.2-1.4-2.2-3.2-2.7-5.2c-0.6-2-1-4.3-1-6.8c0-2.6,0.3-4.7,1-6.9c0.7-2,1.6-3.7,2.9-5.2c1.3-1.4,2.7-2.6,4.6-3.3
		c1.7-0.7,3.7-1.2,6-1.2c3.5,0,6.2,0.9,8.2,2.6c2,1.7,3.3,4.2,4,7.3l-3.3,0.9c-0.3-1.2-0.6-2.2-1-3.2s-1-1.7-1.7-2.4
		c-0.7-0.7-1.6-1.3-2.6-1.6c-1-0.4-2.3-0.6-3.6-0.6c-1.9,0-3.5,0.3-4.7,1c-1.3,0.7-2.4,1.6-3.3,2.7c-0.9,1.2-1.6,2.6-1.9,4.2
		c-0.4,1.6-0.6,3.5-0.6,5.3s0.1,3.7,0.6,5.3c0.4,1.6,1,3,1.9,4.3c0.9,1.2,1.9,2.2,3.3,2.9c1.3,0.7,3,1,4.9,1c3,0,5.2-0.7,6.6-2.2
		c1.4-1.4,2.3-3.5,2.7-5.9L102.9,50.2L102.9,50.2z"/>
	<path class="st0" d="M129.8,55.9c-0.6,0.6-1.2,1.3-1.9,1.9c-0.7,0.6-1.6,1.2-2.4,1.6c-0.9,0.4-1.9,0.9-3,1.2
		c-1.2,0.3-2.3,0.4-3.6,0.4c-3.3,0-5.9-0.7-7.8-2.3c-2-1.6-2.9-3.9-2.9-7.1c0-2,0.4-3.7,1.3-5.2c0.9-1.3,2-2.3,3.5-3.2
		c1.4-0.7,3.2-1.3,5-1.6c1.9-0.3,3.7-0.4,5.8-0.6l6-0.3v-1c0-3-0.6-5.2-1.7-6.6c-1.2-1.4-3.3-2.2-6.3-2.2c-1.4,0-2.7,0.1-3.7,0.4
		c-1,0.3-1.9,0.6-2.6,1c-0.7,0.4-1.3,1-1.6,1.6c-0.4,0.6-0.7,1.3-0.9,2l-3.2-0.4c1.2-5,5.2-7.6,12.1-7.6c2.2,0,4,0.3,5.5,0.7
		c1.4,0.6,2.7,1.3,3.6,2.3c0.9,1,1.6,2.2,2,3.6s0.6,3,0.6,4.9V60h-3.5v-4C130.1,55.9,129.8,55.9,129.8,55.9z M129.8,43.9l-5.8,0.3
		c-2.3,0.1-4.3,0.3-5.8,0.6c-1.6,0.3-2.9,0.9-3.7,1.4c-1,0.6-1.6,1.4-2,2.3c-0.4,0.9-0.6,2-0.6,3.2c0,1.9,0.6,3.5,1.6,4.6
		c1,1.2,2.9,1.7,5.6,1.7c1.3,0,2.6-0.1,3.9-0.4c1.3-0.3,2.3-0.7,3.2-1.4c0.7-0.6,1.3-1,1.7-1.4c0.4-0.4,0.9-1,1.2-1.6
		c0.3-0.6,0.6-1.3,0.6-2c0.1-0.7,0.1-1.6,0.1-2.6C129.8,48.5,129.8,43.9,129.8,43.9z"/>
	<path class="st0" d="M141.6,29.3h3.5v5c1.7-2.2,3.5-3.6,5.3-4.6c1.9-1,3.9-1.4,6-1.4c3.6,0,6.2,1,7.8,2.9c1.7,2,2.6,4.7,2.6,8.3
		v20.6h-3.3V40.6c0-3.3-0.6-5.6-1.7-7.1c-1.2-1.4-3-2.2-5.5-2.2c-1.2,0-2.4,0.3-3.9,0.7c-1.3,0.4-2.6,1.2-3.6,2.2
		c-1.2,1-2.2,2.2-2.7,3.2c-0.6,1.2-0.9,2.6-0.9,4.6v18.1h-3.5L141.6,29.3L141.6,29.3z"/>
	<path class="st0" d="M170.9,29.3h4l10.5,27.2l10.8-27.2h3.7l-12.5,30.9h-4L170.9,29.3z"/>
	<path class="st0" d="M224.3,55.9c-0.6,0.6-1.2,1.3-1.9,1.9c-0.7,0.6-1.6,1.2-2.4,1.6c-0.9,0.4-1.9,0.9-3,1.2
		c-1.2,0.3-2.3,0.4-3.6,0.4c-3.3,0-5.9-0.7-7.8-2.3c-2-1.6-2.9-3.9-2.9-7.1c0-2,0.4-3.7,1.3-5.2c0.9-1.3,2-2.3,3.5-3.2
		c1.4-0.7,3.2-1.3,5-1.6c1.9-0.3,3.7-0.4,5.8-0.6l6-0.3v-1c0-3-0.6-5.2-1.7-6.6c-1.2-1.4-3.3-2.2-6.3-2.2c-1.4,0-2.7,0.1-3.7,0.4
		c-1,0.3-1.9,0.6-2.6,1c-0.7,0.4-1.3,1-1.6,1.6c-0.4,0.6-0.7,1.3-0.9,2l-3.2-0.4c1.2-5,5.2-7.6,12.1-7.6c2.2,0,4,0.3,5.5,0.7
		c1.4,0.6,2.7,1.3,3.6,2.3c0.9,1,1.6,2.2,2,3.6c0.4,1.4,0.6,3,0.6,4.9V60h-3.5v-4C224.6,55.9,224.3,55.9,224.3,55.9z M224.2,43.9
		l-5.8,0.3c-2.3,0.1-4.3,0.3-5.8,0.6c-1.6,0.3-2.9,0.9-3.7,1.4c-1,0.6-1.6,1.4-2,2.3c-0.4,0.9-0.6,2-0.6,3.2c0,1.9,0.6,3.5,1.6,4.6
		c1,1.2,2.9,1.7,5.6,1.7c1.3,0,2.6-0.1,3.9-0.4c1.3-0.3,2.3-0.7,3.2-1.4c0.7-0.6,1.3-1,1.7-1.4c0.4-0.4,0.9-1,1.2-1.6
		c0.3-0.6,0.6-1.3,0.6-2c0.1-0.7,0.1-1.6,0.1-2.6V43.9z"/>
	<path class="st0" d="M238,51.6c0.4,2.4,1.4,4.2,3,5.2c1.6,1,3.9,1.4,6.9,1.4s5.2-0.6,6.3-1.7c1.3-1.2,1.9-2.6,1.9-4.2
		c0-0.7-0.1-1.4-0.3-2c-0.1-0.6-0.4-1.2-0.9-1.7s-1.2-1-2-1.3c-0.9-0.4-2-0.7-3.3-0.9l-3.7-0.6c-1.6-0.3-3.2-0.6-4.5-1
		c-1.3-0.4-2.4-0.9-3.3-1.6c-0.9-0.7-1.6-1.4-2-2.4c-0.4-1-0.7-2.2-0.7-3.6c0-1.3,0.3-2.6,0.9-3.7c0.6-1.2,1.4-2,2.4-2.7
		c1-0.7,2.3-1.3,3.7-1.7c1.4-0.4,2.9-0.6,4.6-0.6c2.2,0,3.9,0.1,5.3,0.6c1.4,0.4,2.6,1,3.5,1.7c0.9,0.7,1.6,1.6,2.2,2.6
		c0.4,1,0.9,2,1.2,3l-3.2,0.7c-0.3-0.9-0.7-1.7-1.2-2.4c-0.4-0.7-1-1.3-1.6-1.7c-0.6-0.4-1.4-0.9-2.4-1c-1-0.3-2.2-0.4-3.6-0.4
		c-1.6,0-2.9,0.1-4,0.4s-2,0.7-2.6,1.3c-0.7,0.6-1.2,1.2-1.4,1.9s-0.4,1.4-0.4,2.2c0,0.7,0.1,1.4,0.3,2c0.1,0.6,0.4,1.2,1,1.6
		c0.4,0.4,1.2,0.9,2,1.2c0.9,0.3,2,0.6,3.5,0.9l4.7,0.7c3.3,0.6,5.6,1.6,7.3,2.9c1.6,1.4,2.4,3.5,2.4,6.3c0,1.2-0.3,2.3-0.7,3.5
		c-0.6,1.2-1.3,2-2.3,2.7c-1,0.7-2.3,1.4-3.7,1.9c-1.4,0.4-3.2,0.7-5.2,0.7c-1.9,0-3.6-0.1-5.2-0.6c-1.6-0.4-3-1-4.2-1.7
		s-2.2-1.7-2.9-3c-0.7-1.2-1.2-2.7-1.3-4.5L238,51.6L238,51.6z"/>
</g>
<path class="st0" d="M55.4,7.7H24.5c-7.9,0-14.2,6.3-14.2,14.2v24.2c0,0.3,0.1,0.4,0.3,0.6l0,0c0.3,0.3,0.6,0.4,1,0.4s0.9-0.3,1-0.6
	c0.1-0.1,0.1-0.3,0.1-0.4V46l0,0l0,0V22c0-6.5,5.3-11.8,11.8-11.8h30.9c6.5,0,11.8,5.3,11.8,11.8v28.2c0,6.5-5.3,11.8-11.8,11.8h-21
	c0,0.7,0.1,1.4,0.6,2.4h20.3c7.9,0,14.2-6.3,14.2-14.2V22C69.6,14.1,63.2,7.7,55.4,7.7z"/>
<path class="st0" d="M50.1,13.9c-2-1-4.5-0.3-5.6,1.7c0,0,0,0,0,0.1v0.1c0,0.1-0.1,0.1-0.1,0.3L31.8,43.4c-1.2,0-2.3,0.3-3.5,0.9
	c-3,2.3-4.6,6.3-4,9.9c0,1,0.1,2.2,0.7,3.5c1.2,3,3.7,5.5,6.8,6.6c0.3,0.1,0.7,0,1-0.1c0.1-0.3,0.3-0.7,0.1-1
	c-1.7-3.6,0.1-5,2.2-6.8c0.9-0.7,1.7-1.6,2.3-2.3c1.6-2.6,1.2-5.9-0.7-8.1l15-26c0-0.1,0.1-0.1,0.1-0.3v-0.1l0,0
	c0-0.1,0.1-0.1,0.1-0.3C52.8,17.2,52,14.9,50.1,13.9z M34.5,41.6l2.2,0.9l-1.2,2l-1.9-0.9L34.5,41.6z M36,52.9c-0.6,0.9-1.2,1.6-2,2
	c-1.7,1.3-4,3.5-3.5,6.8c-2.7-1.7-4.6-4.6-4.7-7.8c-0.6-3.2,0.9-6.5,3.2-8.3c1.2-0.9,2.7-0.9,4-0.3l0.9,0.4c0,0,0.1,0,0.1,0.1
	C36.6,47.3,37.4,50.5,36,52.9z M50.4,18.7L50.4,18.7c0,0.1,0,0.1-0.1,0.1L50.1,19L37.6,41l-2.3-0.9L45.9,17v-0.1c0,0,0-0.1,0.1-0.1
	c0,0,0,0,0-0.1c0.6-1.2,2-1.6,3.2-1C50.4,16.1,50.9,17.5,50.4,18.7z"/>
<path class="st1" d="M81.2,17.5h2.3v1.9h-2.9c-0.7,0-1.3-0.1-1.9-0.3c-0.4-0.1-0.9-0.4-1.3-0.7C77,18,76.7,17.5,76.6,17
	c-0.1-0.6-0.3-1.2-0.3-1.7c0-0.7,0.1-1.3,0.3-1.9c0.1-0.6,0.6-1,0.9-1.4c0.3-0.3,0.7-0.6,1.3-0.7c0.6-0.1,1.2-0.3,1.9-0.3h2.9v1.9
	h-2.3c-1,0-1.7,0.1-2.2,0.6c-0.3,0.3-0.4,0.9-0.4,1.9c0,0.4,0,0.9,0.1,1.3c0.1,0.3,0.4,0.6,0.7,0.9c0.1,0.1,0.3,0.1,0.6,0.1
	C80.3,17.5,80.6,17.5,81.2,17.5z"/>
<path class="st1" d="M92.2,19.4h-4c-1.2,0-2-0.3-2.6-0.7c-0.6-0.4-0.9-1.3-0.9-2.4v-5.3h2.2v5.2c0,0.6,0.1,1,0.3,1.2
	s0.6,0.3,1.2,0.3h1.7v-6.6h2.2V19.4z"/>
<path class="st1" d="M95.8,7.7v3h1.9c0.9,0,1.4,0.1,2,0.3c0.4,0.3,0.9,0.6,1.2,1.2c0.3,0.4,0.6,0.9,0.7,1.3c0.1,0.4,0.3,1,0.3,1.6
	c0,1.4-0.3,2.4-1,3.2s-1.7,1.2-2.9,1.2h-4.2V7.7H95.8z M97.1,12.6h-1.3v4.9h1.4c0.9,0,1.4-0.1,1.7-0.6s0.4-1,0.4-1.9
	c0-0.9-0.1-1.6-0.6-1.9C98.6,12.9,98,12.6,97.1,12.6z"/>
<path class="st1" d="M106.9,19.4c-1.3,0-2.3-0.4-3-1.2c-0.7-0.7-1-1.7-1-3.2s0.3-2.4,1-3.2c0.7-0.7,1.7-1.2,3-1.2h3.2v1.7h-2.9
	c-0.7,0-1.3,0.1-1.6,0.3c-0.3,0.3-0.4,0.7-0.4,1.3h4.9v1.7h-4.9c0,0.6,0.1,1,0.4,1.3c0.3,0.3,0.7,0.3,1.6,0.3h2.9v2H106.9z"/>
<path class="st2" d="M117.9,13.5l-1.7,5.9h-2.4l-2.9-8.5h2.3l1.7,6l1.7-6h2.3l1.9,6l1.9-6h2.2l-2.6,8.5h-2.4L117.9,13.5z"/>
<path class="st2" d="M127.9,9.9h-2.3V7.7h2.3V9.9z M127.9,19.4h-2.3v-8.5h2.3V19.4z"/>
<path class="st2" d="M129.1,17.7h4.6c0.4,0,0.7,0,0.9-0.1c0.1-0.1,0.3-0.3,0.3-0.6c0-0.3-0.1-0.6-0.3-0.6c-0.1-0.1-0.4-0.1-0.9-0.1
	h-1.9c-1.2,0-1.9-0.1-2.3-0.6c-0.3-0.6-0.6-1.3-0.6-2.2s0.3-1.6,0.7-2s1.2-0.7,2.2-0.7h4.6v1.7h-3.7c-0.6,0-1,0-1.2,0.1
	c-0.1,0.1-0.3,0.3-0.3,0.6s0.1,0.4,0.3,0.6c0.1,0.1,0.4,0.1,0.7,0.1h2c0.9,0,1.6,0.3,2,0.7s0.7,1,0.7,1.9s-0.1,1.4-0.6,1.9
	c-0.6,0.7-1.2,1-1.7,1h-5.6V17.7z"/>
<path class="st2" d="M142,19.4c-1.3,0-2.3-0.4-3-1.2c-0.7-0.7-1-1.7-1-3.2s0.3-2.4,1-3.2c0.7-0.7,1.7-1.2,3-1.2h3.2v1.7h-2.9
	c-0.7,0-1.3,0.1-1.6,0.3c-0.1,0.4-0.3,0.9-0.4,1.4h4.9v1.7h-4.9c0,0.6,0.1,1,0.4,1.3c0.3,0.3,0.7,0.3,1.6,0.3h2.9v1.9H142z"/>
</svg>
