<?xml version="1.0" encoding="utf-8"?>
<!-- Generator: Adobe Illustrator 21.0.2, SVG Export Plug-In . SVG Version: 6.00 Build 0)  -->
<svg version="1.1" id="Layer_1" xmlns="http://www.w3.org/2000/svg" xmlns:xlink="http://www.w3.org/1999/xlink" x="0px" y="0px"
	 viewBox="0 0 92.7 50" style="enable-background:new 0 0 92.7 50;" xml:space="preserve">
<style type="text/css">
	.st0{fill:#FFFFFF;}
</style>
<g>
	
		<image style="overflow:visible;opacity:0.41;" width="121" height="130" xlink:href="4E3544EA90AAB67F.png"  transform="matrix(0.24 0 0 0.24 8.2533 9.36)">
	</image>
	<g>
		<path class="st0" d="M32.9,17.5h-5.2c-2.3,0-3.9,0.4-4.8,1.2c-0.9,0.8-1.3,2.2-1.3,4.2c0,1.1,0.2,2.1,0.5,2.8
			c0.4,0.7,0.9,1.4,1.7,1.8c0.4,0.2,0.8,0.4,1.3,0.5c0.5,0.1,1.4,0.1,2.6,0.1h5.2v4h-6.7c-1.7,0-3.1-0.2-4.2-0.5
			c-1.1-0.4-2-0.9-2.8-1.7c-0.9-0.9-1.5-1.9-2-3.1c-0.5-1.2-0.7-2.5-0.7-3.9c0-1.4,0.2-2.8,0.7-4c0.5-1.2,1.2-2.3,2-3.1
			c0.8-0.8,1.8-1.4,2.9-1.7c1.1-0.4,2.5-0.5,4.1-0.5h6.7V17.5z"/>
	</g>
</g>
<g>
	
		<image style="overflow:visible;opacity:0.41;" width="108" height="130" xlink:href="4E3544EA90AAB67D.png"  transform="matrix(0.24 0 0 0.24 28.1733 9.36)">
	</image>
	<g>
		<path class="st0" d="M49.7,21.3H45v-2.4c0-0.7-0.1-1.2-0.4-1.5c-0.3-0.2-0.8-0.4-1.8-0.4h-1.7v15.1h-4.9V13.5h8.3
			c1.9,0,3.3,0.3,4.1,1c0.8,0.7,1.2,1.9,1.2,3.7V21.3z"/>
	</g>
</g>
<g>
	
		<image style="overflow:visible;opacity:0.41;" width="163" height="130" xlink:href="4E3544EA90AAB683.png"  transform="matrix(0.24 0 0 0.24 44.7333 9.36)">
	</image>
	<g>
		<path class="st0" d="M79.5,32.2h-5V21c0-1.4-0.2-2.3-0.6-2.7c-0.4-0.4-1.3-0.7-2.6-0.7h-2.8v14.5h-5V17.6h-5.8v14.5h-5V13.5h18.9
			c2.7,0,4.7,0.5,5.9,1.6c1.2,1.1,1.8,2.8,1.8,5.2V32.2z"/>
	</g>
</g>
<g>
	
		<image style="overflow:visible;opacity:0.41;" width="410" height="208" xlink:href="4E3544EA90AAB685.png"  transform="matrix(0.24 0 0 0.24 -3.2667 0)">
	</image>
	<g>
		<path class="st0" d="M88.5,41.6H20.3c-8.5,0-15.5-6.9-15.5-15.5v-6.6c0-8.5,6.9-15.5,15.5-15.5h55.3c8.5,0,15.5,6.9,15.5,15.5V39
			C91.1,40.5,89.9,41.6,88.5,41.6z M20.3,9.2C14.6,9.2,10,13.8,10,19.5v6.6c0,5.7,4.6,10.3,10.3,10.3h65.6V19.5
			c0-5.7-4.6-10.3-10.3-10.3H20.3z"/>
	</g>
</g>
</svg>
